<svg xmlns="http://www.w3.org/2000/svg" viewBox="0 0 500 700" role="img" aria-label="Sliding puzzle 7x5">
  <rect width="500" height="700" fill="#0f172a" />
  <g fill="#e2e8f0" font-family="Inter, ui-sans-serif, system-ui, sans-serif" font-weight="700" text-anchor="middle">
    <text x="50"  y="66"  font-size="30">1</text>
    <text x="150" y="66"  font-size="30">2</text>
    <text x="250" y="66"  font-size="30">3</text>
    <text x="350" y="66"  font-size="30">4</text>
    <text x="450" y="66"  font-size="30">5</text>

    <text x="50"  y="166" font-size="30">6</text>
    <text x="150" y="166" font-size="30">7</text>
    <text x="250" y="166" font-size="30">8</text>
    <text x="350" y="166" font-size="30">9</text>
    <text x="450" y="166" font-size="30">10</text>

    <text x="50"  y="266" font-size="30">11</text>
    <text x="150" y="266" font-size="30">12</text>
    <text x="250" y="266" font-size="30">13</text>
    <text x="350" y="266" font-size="30">14</text>
    <text x="450" y="266" font-size="30">15</text>

    <text x="50"  y="366" font-size="30">16</text>
    <text x="150" y="366" font-size="30">17</text>
    <text x="250" y="366" font-size="30">18</text>
    <text x="350" y="366" font-size="30">19</text>
    <text x="450" y="366" font-size="30">20</text>

    <text x="50"  y="466" font-size="30">21</text>
    <text x="150" y="466" font-size="30">22</text>
    <text x="250" y="466" font-size="30">23</text>
    <text x="350" y="466" font-size="30">24</text>
    <text x="450" y="466" font-size="30">25</text>

    <text x="50"  y="566" font-size="30">26</text>
    <text x="150" y="566" font-size="30">27</text>
    <text x="250" y="566" font-size="30">28</text>
    <text x="350" y="566" font-size="30">29</text>
    <text x="450" y="566" font-size="30">30</text>

    <text x="50"  y="666" font-size="30">31</text>
    <text x="150" y="666" font-size="30">32</text>
    <text x="250" y="666" font-size="30">33</text>
    <text x="350" y="666" font-size="30">34</text>
    <text x="450" y="666" font-size="30"> </text>
  </g>
</svg>
